<svg xmlns="http://www.w3.org/2000/svg" width="1200" height="1200" viewBox="0 0 1200 1200" role="img" aria-labelledby="title desc">
  <title id="title">mech-lab launch card</title>
  <desc id="desc">Launch card for the branded mech-lab alpha release.</desc>
  <rect width="1200" height="1200" fill="#F0EDE6"/>
  <rect x="88" y="88" width="1024" height="1024" rx="36" fill="#0D0F0E"/>
  <rect x="152" y="152" width="148" height="148" rx="16" fill="none" stroke="#F0EDE6" stroke-width="4"/>
  <path d="M182 272V182M208 272V214M244 272V214M270 272V182" fill="none" stroke="#F0EDE6" stroke-width="8" stroke-linecap="square"/>
  <path d="M208 214L226 236L244 214" fill="none" stroke="#F0EDE6" stroke-width="8" stroke-linecap="square"/>
  <circle cx="226" cy="236" r="36" fill="none" stroke="#1C6B5A" stroke-width="4" stroke-dasharray="7 9"/>
  <rect x="812" y="162" width="236" height="42" rx="21" fill="#B8FF57"/>
  <text x="838" y="189" fill="#0D0F0E" font-family="'IBM Plex Mono', monospace" font-size="18" letter-spacing="2">ALPHA RELEASE</text>
  <text x="152" y="408" fill="#F0EDE6" font-family="'IBM Plex Mono', monospace" font-size="20" letter-spacing="3">MECH-LAB V0.1.0A1</text>
  <text x="152" y="520" fill="#F0EDE6" font-family="'DM Serif Display', Georgia, serif" font-size="92">Mechanistic</text>
  <text x="152" y="614" fill="#F0EDE6" font-family="'DM Serif Display', Georgia, serif" font-size="92">interpretability</text>
  <text x="152" y="708" fill="#F0EDE6" font-family="'DM Serif Display', Georgia, serif" font-size="92">that ships.</text>
  <text x="152" y="808" fill="#6B7068" font-family="'IBM Plex Sans', Arial, sans-serif" font-size="30">Install the public package. Generate an Evidence Bundle.</text>
  <text x="152" y="852" fill="#6B7068" font-family="'IBM Plex Sans', Arial, sans-serif" font-size="30">Inspect the native Qwen3.5 proof path through mechlab.</text>
  <text x="152" y="958" fill="#F0EDE6" font-family="'IBM Plex Mono', monospace" font-size="24">pip install --pre mech-lab</text>
  <text x="152" y="996" fill="#F0EDE6" font-family="'IBM Plex Mono', monospace" font-size="24">mechlab demo</text>
  <circle cx="926" cy="786" r="116" fill="none" stroke="#1C6B5A" stroke-width="10" stroke-dasharray="12 16"/>
  <path d="M850 878L926 786L1002 878" fill="none" stroke="#F0EDE6" stroke-width="8" stroke-linecap="square"/>
  <path d="M850 878H1002" fill="none" stroke="#F0EDE6" stroke-width="8" stroke-linecap="square"/>
</svg>
